<svg width="46" height="46" viewBox="0 0 46 46" fill="none" xmlns="http://www.w3.org/2000/svg">
<circle cx="23" cy="23" r="23" fill="#E94335"/>
<path d="M9.43095 12.5453C9.43095 12.5453 9.02099 12.1354 9.02099 11.7254C9.02099 11.4794 9.10298 11.2334 9.26696 11.0695C9.51294 10.8235 9.84091 10.7415 10.1689 10.8235C10.2509 10.8235 10.2509 10.8235 10.3329 10.9055L25.6654 16.071L30.257 11.4794C30.257 11.4794 32.2248 9.5116 34.6026 9.01965H34.6846C35.2585 8.93765 35.9144 9.10164 36.4064 9.59359C36.8984 10.0855 37.0623 10.7415 36.9804 11.3154V11.3974C36.4884 13.7752 34.5206 15.743 34.5206 15.743L29.929 20.3346L35.0945 35.6671C35.0945 35.7491 35.0945 35.7491 35.1765 35.8311C35.2585 36.1591 35.1765 36.4871 34.9305 36.733C34.7666 36.897 34.5206 36.979 34.2746 36.979C33.7827 36.979 33.6187 36.815 33.4547 36.5691L26.6493 28.2878C25.9934 27.5499 26.0754 26.402 26.8133 25.6641L28.3712 24.1062C28.6991 23.7783 28.6991 23.2863 28.3712 22.9583C28.0432 22.7124 27.5512 22.7124 27.2233 23.0403L24.5175 25.7461L24.1896 26.074C21.1558 29.1078 17.8762 30.2557 17.8762 30.2557C17.7942 30.3376 17.6302 30.3376 17.5482 30.4196C17.3022 30.6656 17.2202 30.9936 17.3022 31.2396L18.0401 35.9131C18.1221 36.2411 17.9581 36.5691 17.7122 36.733C17.3842 36.979 16.9742 36.979 16.7283 36.733C16.6463 36.651 16.5643 36.5691 16.4823 36.4871L13.7765 32.1415L9.43095 29.4357C9.34895 29.3537 9.26696 29.2717 9.18497 29.1898C8.93899 28.8618 8.93899 28.4518 9.18497 28.1238C9.34896 27.8779 9.67692 27.7959 10.0049 27.7959L14.6785 28.5338C15.0064 28.6158 15.2524 28.5338 15.4984 28.2878C15.5804 28.2058 15.6624 28.1239 15.6624 27.9599C15.6624 27.9599 16.8922 25.0081 19.352 22.2204C19.762 21.7285 19.762 20.9085 19.188 20.4986L9.43095 12.5453Z" fill="white"/>
</svg>
