<svg width="46" height="46" viewBox="0 0 46 46" fill="none" xmlns="http://www.w3.org/2000/svg">
<circle cx="23" cy="23" r="23" fill="#E94335"/>
<path d="M34.4765 27.471C34.5655 27.471 34.5655 27.382 34.6545 27.382H34.7435C36.7016 26.403 37.9477 24.3559 37.9477 20.5286C37.9477 18.6595 37.5917 16.7014 36.9686 14.7433C36.3456 12.7852 35.5445 10.9161 34.5655 9.581C33.7644 8.42393 32.8744 7.5339 32.0733 7.26689C31.8063 7.17788 31.6283 7.08887 31.3613 7.08887C31.0053 7.08887 30.7383 7.17786 30.4713 7.35587C29.6702 7.71189 28.8692 8.60192 28.1571 9.66999C27.1781 11.0941 26.377 12.8742 25.754 14.9213C25.131 16.7904 24.7749 18.7485 24.7749 20.5286C24.7749 24.3559 26.021 26.403 27.9791 27.382H28.0681L28.1571 27.471C29.3142 28.1831 30.0262 29.4292 29.8482 30.7642C29.5812 33.0784 29.3142 35.7485 29.1362 38.5077C29.0472 39.7538 30.0263 40.9108 31.2723 40.9998H31.3613C32.6074 40.9998 33.5865 39.8428 33.4975 38.5077C33.3194 35.7485 33.0524 33.0784 32.7854 30.7642C32.6074 29.4292 33.3194 28.0941 34.4765 27.471Z" fill="white"/>
<path d="M19.5236 27.4712C21.3037 26.4031 22.4607 24.4451 22.4607 22.2199L21.5707 7.97909C21.5707 7.44506 21.1256 7 20.5026 7C19.8796 7 19.4345 7.53404 19.4345 8.06807L19.9686 19.5498C19.9686 20.1728 19.4346 20.7068 18.8115 20.7068C18.1885 20.7068 17.6544 20.1728 17.6544 19.5498L17.3874 8.06807C17.3874 7.44504 16.8534 7 16.2304 7C15.6073 7 15.1623 7.44504 15.0733 8.06807L14.8063 19.5498C14.8063 20.1728 14.2722 20.7068 13.6492 20.7068C13.0262 20.7068 12.4921 20.1728 12.4921 19.5498L13.0262 8.06807C13.0262 7.44504 12.5812 7 11.9581 7C11.4241 7 10.9791 7.44506 10.8901 7.97909L10 22.2199C10 24.4451 11.1571 26.4031 12.9372 27.4712C14.0942 28.1832 14.7173 29.5183 14.5392 30.9424C14.2722 33.2566 14.0942 35.8377 13.8272 38.5079C13.7382 39.7539 14.7173 40.911 15.9634 41C15.9634 41 15.9633 41 16.0523 41C16.0523 41 16.0524 41 16.1414 41C17.3875 41 18.3665 39.8429 18.2775 38.5079C18.0995 35.8377 17.8325 33.1676 17.5654 30.9424C17.7435 29.5183 18.3665 28.1832 19.5236 27.4712Z" fill="white"/>
</svg>
