<svg width="46" height="46" viewBox="0 0 46 46" fill="none" xmlns="http://www.w3.org/2000/svg">
<circle cx="23" cy="23" r="23" fill="#E94335"/>
<path d="M37.547 21.453H26.3504C25.5812 21.453 24.8974 22.1367 24.8974 22.906V27.4359V30C24.8974 30.4274 24.5556 30.7692 24.1282 30.7692C23.7009 30.7692 23.359 30.4274 23.359 30V27.5214V27.4359V11.453C23.359 10.6838 22.6752 10 21.906 10H10.453C9.68376 10 9 10.6838 9 11.453V34.1026C9 34.8718 9.68376 35.5556 10.453 35.5556H14.1282V31.5385C14.1282 31.1111 13.7863 30.8547 13.4444 30.8547H12.6752C12.4188 30.8547 12.2479 30.6838 12.2479 30.4274C12.2479 30.1709 12.4188 30 12.6752 30H19.7692C20.0256 30 20.1966 30.1709 20.1966 30.4274C20.1966 30.6838 20.0256 30.8547 19.7692 30.8547H19C18.5726 30.8547 18.3162 31.1966 18.3162 31.5385V35.5556H23.4444H37.547C38.3162 35.5556 39 34.8718 39 34.1026V22.8205C39 22.1368 38.4017 21.453 37.547 21.453ZM14.8974 26.6667C14.8974 27.1795 14.4701 27.5214 14.0427 27.5214H12.4188C11.906 27.5214 11.5641 27.094 11.5641 26.6667V25.0427C11.5641 24.5299 11.9915 24.188 12.4188 24.188H14.0427C14.5556 24.188 14.8974 24.6154 14.8974 25.0427V26.6667ZM14.8974 21.1966C14.8974 21.7094 14.4701 22.0513 14.0427 22.0513H12.4188C11.906 22.0513 11.5641 21.6239 11.5641 21.1966V19.5726C11.5641 19.0598 11.9915 18.7179 12.4188 18.7179H14.0427C14.5556 18.7179 14.8974 19.1453 14.8974 19.5726V21.1966ZM14.8974 15.7265C14.8974 16.2393 14.4701 16.5812 14.0427 16.5812H12.4188C11.906 16.5812 11.5641 16.1538 11.5641 15.7265V14.1026C11.5641 13.5897 11.9915 13.2479 12.4188 13.2479H14.0427C14.5556 13.2479 14.8974 13.6752 14.8974 14.1026V15.7265ZM20.6239 26.6667C20.6239 27.1795 20.1966 27.5214 19.7692 27.5214H18.1453C17.6325 27.5214 17.2906 27.094 17.2906 26.6667V25.0427C17.2906 24.5299 17.7179 24.188 18.1453 24.188H19.7692C20.282 24.188 20.6239 24.6154 20.6239 25.0427V26.6667ZM20.6239 21.1966C20.6239 21.7094 20.1966 22.0513 19.7692 22.0513H18.1453C17.6325 22.0513 17.2906 21.6239 17.2906 21.1966V19.5726C17.2906 19.0598 17.7179 18.7179 18.1453 18.7179H19.7692C20.282 18.7179 20.6239 19.1453 20.6239 19.5726V21.1966ZM20.6239 15.7265C20.6239 16.2393 20.1966 16.5812 19.7692 16.5812H18.1453C17.6325 16.5812 17.2906 16.1538 17.2906 15.7265V14.1026C17.2906 13.5897 17.7179 13.2479 18.1453 13.2479H19.7692C20.282 13.2479 20.6239 13.6752 20.6239 14.1026V15.7265ZM30.7094 32.0513C30.7094 32.5641 30.2821 32.906 29.8547 32.906H28.2308C27.718 32.906 27.3761 32.4786 27.3761 32.0513V30.4274C27.3761 29.9145 27.8034 29.5727 28.2308 29.5727H29.8547C30.3675 29.5727 30.7094 30 30.7094 30.4274V32.0513ZM30.7094 26.6667C30.7094 27.1795 30.2821 27.5214 29.8547 27.5214H28.2308C27.718 27.5214 27.3761 27.094 27.3761 26.6667V25.0427C27.3761 24.5299 27.8034 24.188 28.2308 24.188H29.8547C30.3675 24.188 30.7094 24.6154 30.7094 25.0427V26.6667ZM36.5214 32.0513C36.5214 32.5641 36.094 32.906 35.6667 32.906H34.0427C33.5299 32.906 33.188 32.4786 33.188 32.0513V30.4274C33.188 29.9145 33.6154 29.5727 34.0427 29.5727H35.6667C36.1795 29.5727 36.5214 30 36.5214 30.4274V32.0513ZM36.5214 26.6667C36.5214 27.1795 36.094 27.5214 35.6667 27.5214H34.0427C33.5299 27.5214 33.188 27.094 33.188 26.6667V25.0427C33.188 24.5299 33.6154 24.188 34.0427 24.188H35.6667C36.1795 24.188 36.5214 24.6154 36.5214 25.0427V26.6667Z" fill="white"/>
</svg>
