<svg width="46" height="46" viewBox="0 0 46 46" fill="none" xmlns="http://www.w3.org/2000/svg">
<path d="M22.9977 45.9955C35.699 45.9955 45.9955 35.699 45.9955 22.9977C45.9955 10.2964 35.699 0 22.9977 0C10.2964 0 0 10.2964 0 22.9977C0 35.699 10.2964 45.9955 22.9977 45.9955Z" fill="#E94335"/>
<path d="M10.3719 24.5941C10.8782 24.0993 11.5598 23.8254 12.2676 23.8322V23.8322C12.6158 23.831 12.9607 23.8986 13.2826 24.0313C13.6045 24.164 13.8969 24.359 14.1431 24.6052C14.3893 24.8514 14.5843 25.1438 14.717 25.4657C14.8497 25.7876 14.9174 26.1325 14.9162 26.4807C14.9057 27.1759 14.6255 27.8398 14.1347 28.3323C13.6439 28.8248 12.9809 29.1073 12.2858 29.1201C11.7602 29.1206 11.2463 28.9657 10.8085 28.675C10.3706 28.3842 10.0285 27.9706 9.82499 27.4861C9.62148 27.0015 9.56569 26.4677 9.66461 25.9515C9.76354 25.4354 10.0128 24.96 10.381 24.585L10.3719 24.5941Z" fill="white"/>
<path d="M23.1293 27.1385H19.5374H15.9411C15.7279 27.1385 8.02271 27.1385 7.77781 27.1385C7.20638 27.1385 6.63495 27.1385 6.06806 27.1385C5.84609 27.1267 5.63617 27.0338 5.47816 26.8775C5.32015 26.7212 5.22505 26.5122 5.21091 26.2904C5.16326 25.3931 5.16326 24.4939 5.21091 23.5965C5.24 23.0976 5.41992 22.6193 5.72685 22.2249C6.03379 21.8305 6.45325 21.5386 6.92973 21.3879C7.77758 21.0797 8.644 20.8253 9.52384 20.626C10.517 20.4083 11.5284 20.2904 12.5306 20.1135C12.6979 20.0891 12.855 20.0184 12.9842 19.9095C14.2869 18.6412 15.8019 17.6113 17.4603 16.8664C19.1201 16.0733 20.9017 15.5658 22.7302 15.3652C25.5873 15.075 28.4082 15.1929 31.152 16.177C32.6513 16.6952 34.0271 17.5183 35.1928 18.5943C35.5178 18.8994 35.9044 19.1314 36.3266 19.2745C37.1429 19.5421 37.9819 19.728 38.8164 19.9276C39.3797 20.0601 39.8825 20.3771 40.2449 20.8282C40.6073 21.2794 40.8085 21.8388 40.8164 22.4174C40.8164 23.5421 40.8164 24.685 40.8164 25.8006C40.8232 25.976 40.7941 26.151 40.7306 26.3146C40.6672 26.4783 40.5709 26.6272 40.4476 26.7522C40.3244 26.8772 40.1768 26.9755 40.014 27.0412C39.8512 27.1069 39.6766 27.1384 39.5012 27.1339C39.2018 27.1339 38.9025 27.1339 38.5941 27.1339C38.2857 27.1339 30.6077 27.1339 30.2449 27.1339H23.1293V27.1385ZM32.6531 19.7417C32.9297 19.7417 32.9706 19.533 32.8345 19.3426C32.0379 18.4045 31.0201 17.6797 29.873 17.2337C28.586 16.7587 27.2221 16.5265 25.8504 16.5489C25.4694 16.5489 25.4286 16.5852 25.3969 16.9661C25.288 17.8732 25.1882 18.7802 25.0749 19.6872C25.0386 19.9866 25.22 19.9911 25.4241 19.9866C26.5941 19.9548 31.4422 19.7825 32.6531 19.7417ZM22.9207 20.1135C23.6962 20.0863 23.7098 20.0909 23.8277 19.3244C23.9456 18.558 24.0182 17.7779 24.0998 17.0024C24.1361 16.6759 24.0998 16.6442 23.7597 16.6759C22.5468 16.7962 21.353 17.0627 20.2041 17.4695C18.5886 18.0453 17.0883 18.9037 15.7733 20.0047C15.5919 20.1816 15.7052 20.372 15.9275 20.372L22.9207 20.1135Z" fill="white"/>
<path d="M12.3628 29.6325C11.9437 29.6405 11.5273 29.5639 11.1385 29.4072C10.7497 29.2505 10.3966 29.0169 10.1002 28.7205C9.80377 28.4241 9.57023 28.071 9.41353 27.6822C9.25682 27.2934 9.18018 26.877 9.18819 26.4579C9.18413 26.0472 9.26228 25.6398 9.41805 25.2597C9.57382 24.8796 9.80407 24.5345 10.0952 24.2448C10.3946 23.9514 10.7491 23.7201 11.1383 23.5645C11.5275 23.4088 11.9437 23.3317 12.3628 23.3377V23.3377C12.7841 23.3335 13.2019 23.414 13.5915 23.5745C13.981 23.735 14.3343 23.9722 14.6304 24.272" stroke="#E94335" stroke-width="0.875283" stroke-linecap="round" stroke-linejoin="round"/>
<path d="M32.5579 24.5943C32.8099 24.3473 33.1084 24.1527 33.4361 24.022C33.7639 23.8912 34.1143 23.8267 34.4672 23.8324V23.8324C34.8153 23.8306 35.1602 23.8979 35.4821 24.0304C35.804 24.1629 36.0964 24.358 36.3424 24.6044C36.5883 24.8507 36.7829 25.1434 36.9149 25.4656C37.0468 25.7877 37.1135 26.1328 37.1111 26.4809C37.1006 27.1784 36.8185 27.8443 36.3248 28.3372C35.8311 28.83 35.1647 29.111 34.4672 29.1204C33.942 29.1199 33.4287 28.9644 32.9915 28.6733C32.5544 28.3822 32.213 27.9686 32.01 27.4842C31.8071 26.9999 31.7517 26.4664 31.8507 25.9506C31.9498 25.4349 32.199 24.9599 32.5669 24.5852L32.5579 24.5943Z" fill="white"/>
<path d="M34.5489 29.6325C34.1299 29.6399 33.7138 29.5628 33.3253 29.4059C32.9368 29.249 32.5839 29.0154 32.2877 28.7191C31.9914 28.4228 31.7578 28.0699 31.6009 27.6814C31.444 27.293 31.3669 26.8768 31.3743 26.4579C31.3705 26.0472 31.4487 25.6399 31.6045 25.2598C31.7602 24.8798 31.9903 24.5347 32.2813 24.2448C32.5807 23.9514 32.9352 23.7201 33.3244 23.5645C33.7136 23.4088 34.1297 23.3317 34.5489 23.3377C34.9699 23.3353 35.3872 23.4166 35.7765 23.577C36.1658 23.7374 36.5193 23.9737 36.8164 24.272" stroke="#E94335" stroke-width="0.875283" stroke-linecap="round" stroke-linejoin="round"/>
<path d="M22.6213 22.104H25.8594" stroke="#E94335" stroke-width="0.875283" stroke-linecap="round" stroke-linejoin="round"/>
</svg>
