<svg width="46" height="46" viewBox="0 0 46 46" fill="none" xmlns="http://www.w3.org/2000/svg">
<circle opacity="0.6" cx="23" cy="23" r="23" fill="#D9DBE0"/>
<path d="M11.375 22.8151C11.375 22.0342 11.649 21.3699 12.1969 20.8219C12.7449 20.274 13.4366 20 14.2723 20C15.1079 20 15.7928 20.274 16.3271 20.8219C16.8613 21.3699 17.1284 22.0342 17.1284 22.8151C17.1284 23.5685 16.8613 24.2192 16.3271 24.7671C15.7928 25.3151 15.1079 25.589 14.2723 25.589C13.4366 25.589 12.7449 25.3151 12.1969 24.7671C11.649 24.2192 11.375 23.5685 11.375 22.8151Z" fill="#75767A"/>
<path d="M20.4983 22.8151C20.4983 22.0342 20.7723 21.3699 21.3202 20.8219C21.8682 20.274 22.5599 20 23.3955 20C24.2312 20 24.9161 20.274 25.4503 20.8219C25.9846 21.3699 26.2517 22.0342 26.2517 22.8151C26.2517 23.5685 25.9846 24.2192 25.4503 24.7671C24.9161 25.3151 24.2312 25.589 23.3955 25.589C22.5599 25.589 21.8682 25.3151 21.3202 24.7671C20.7723 24.2192 20.4983 23.5685 20.4983 22.8151Z" fill="#75767A"/>
<path d="M29.6216 22.8151C29.6216 22.0342 29.8955 21.3699 30.4435 20.8219C30.9914 20.274 31.6832 20 32.5188 20C33.3545 20 34.0394 20.274 34.5736 20.8219C35.1079 21.3699 35.375 22.0342 35.375 22.8151C35.375 23.5685 35.1079 24.2192 34.5736 24.7671C34.0394 25.3151 33.3545 25.589 32.5188 25.589C31.6832 25.589 30.9914 25.3151 30.4435 24.7671C29.8955 24.2192 29.6216 23.5685 29.6216 22.8151Z" fill="#75767A"/>
</svg>
