<svg width="46" height="46" viewBox="0 0 46 46" fill="none" xmlns="http://www.w3.org/2000/svg">
<circle cx="23" cy="23" r="23" fill="#E94335"/>
<path d="M34.4712 23.7185H24.5552C23.8772 23.7185 23.2839 24.3118 23.2839 24.9898V29.2274C23.2839 29.5664 22.9449 29.9054 22.6059 29.9054C22.2669 29.9054 21.9279 29.5664 21.9279 29.2274V14.9891C21.9279 14.311 21.3346 13.7178 20.6566 13.7178H10.5711C9.89307 13.7178 9.2998 14.311 9.2998 14.9891V34.9906C9.2998 35.6686 9.89307 36.2619 10.5711 36.2619H13.7917V32.7023C13.7917 32.3633 13.5374 32.109 13.1984 32.109H12.4356C12.1814 32.109 12.0119 31.9395 12.0119 31.6852C12.0119 31.431 12.1814 31.2615 12.4356 31.2615H18.7073C18.9615 31.2615 19.131 31.431 19.131 31.6852C19.131 31.9395 18.9615 32.109 18.7073 32.109H18.0293C17.6903 32.109 17.436 32.3633 17.436 32.7023V36.2619H21.9279H34.4712C35.1492 36.2619 35.7425 35.6686 35.7425 34.9906V24.9898C35.7425 24.3118 35.1492 23.7185 34.4712 23.7185ZM14.4697 28.2951C14.4697 28.7189 14.1307 29.0579 13.7069 29.0579H12.2661C11.8424 29.0579 11.5034 28.7189 11.5034 28.2951V26.8544C11.5034 26.4306 11.8424 26.0916 12.2661 26.0916H13.7069C14.1307 26.0916 14.4697 26.4306 14.4697 26.8544V28.2951ZM14.4697 23.4643C14.4697 23.888 14.1307 24.227 13.7069 24.227H12.2661C11.8424 24.227 11.5034 23.888 11.5034 23.4643V22.0235C11.5034 21.5997 11.8424 21.2607 12.2661 21.2607H13.7069C14.1307 21.2607 14.4697 21.5997 14.4697 22.0235V23.4643ZM14.4697 18.6334C14.4697 19.0572 14.1307 19.3962 13.7069 19.3962H12.2661C11.8424 19.3962 11.5034 19.0572 11.5034 18.6334V17.1926C11.5034 16.7689 11.8424 16.4298 12.2661 16.4298H13.7069C14.1307 16.4298 14.4697 16.7689 14.4697 17.1926V18.6334ZM19.5548 28.2951C19.5548 28.7189 19.2158 29.0579 18.792 29.0579H17.3513C16.9275 29.0579 16.5885 28.7189 16.5885 28.2951V26.8544C16.5885 26.4306 16.9275 26.0916 17.3513 26.0916H18.792C19.2158 26.0916 19.5548 26.4306 19.5548 26.8544V28.2951ZM19.5548 23.4643C19.5548 23.888 19.2158 24.227 18.792 24.227H17.3513C16.9275 24.227 16.5885 23.888 16.5885 23.4643V22.0235C16.5885 21.5997 16.9275 21.2607 17.3513 21.2607H18.792C19.2158 21.2607 19.5548 21.5997 19.5548 22.0235V23.4643ZM19.5548 18.6334C19.5548 19.0572 19.2158 19.3962 18.792 19.3962H17.3513C16.9275 19.3962 16.5885 19.0572 16.5885 18.6334V17.1926C16.5885 16.7689 16.9275 16.4298 17.3513 16.4298H18.792C19.2158 16.4298 19.5548 16.7689 19.5548 17.1926V18.6334ZM28.4538 33.0413C28.4538 33.465 28.1148 33.804 27.691 33.804H26.2502C25.8265 33.804 25.4875 33.465 25.4875 33.0413V31.6005C25.4875 31.1767 25.8265 30.8377 26.2502 30.8377H27.691C28.1148 30.8377 28.4538 31.1767 28.4538 31.6005V33.0413ZM28.4538 28.2951C28.4538 28.7189 28.1148 29.0579 27.691 29.0579H26.2502C25.8265 29.0579 25.4875 28.7189 25.4875 28.2951V26.8544C25.4875 26.4306 25.8265 26.0916 26.2502 26.0916H27.691C28.1148 26.0916 28.4538 26.4306 28.4538 26.8544V28.2951ZM33.5389 33.0413C33.5389 33.465 33.1999 33.804 32.7762 33.804H31.3354C30.9116 33.804 30.5726 33.465 30.5726 33.0413V31.6005C30.5726 31.1767 30.9116 30.8377 31.3354 30.8377H32.7762C33.1999 30.8377 33.5389 31.1767 33.5389 31.6005V33.0413ZM33.5389 28.2951C33.5389 28.7189 33.1999 29.0579 32.7762 29.0579H31.3354C30.9116 29.0579 30.5726 28.7189 30.5726 28.2951V26.8544C30.5726 26.4306 30.9116 26.0916 31.3354 26.0916H32.7762C33.1999 26.0916 33.5389 26.4306 33.5389 26.8544V28.2951Z" fill="white"/>
<path d="M24.3853 9.98854C24.3853 9.98854 24.2158 9.81904 24.2158 9.56478C24.2158 9.48003 24.2158 9.31052 24.3006 9.22577C24.3853 9.14101 24.5548 9.05627 24.7243 9.14102H24.8091L31.8435 11.5141L33.9623 9.39528C33.9623 9.39528 34.8946 8.54776 35.9116 8.2935C36.1659 8.20875 36.5049 8.2935 36.6744 8.54776C36.9287 8.80202 37.0134 9.05627 36.9286 9.31052C36.6744 10.4123 35.8269 11.2598 35.8269 11.2598L33.7081 13.3786L36.0811 20.4131V20.4978C36.0811 20.6673 36.0811 20.7521 35.9964 20.9216C35.9116 21.0063 35.8269 21.0063 35.6574 21.0063C35.4879 21.0063 35.3184 20.9216 35.3184 20.8368L32.2673 17.023C32.013 16.684 32.013 16.1754 32.352 15.8364L33.1148 15.0737C33.2843 14.9042 33.2843 14.7347 33.1148 14.5652C32.9453 14.3957 32.7758 14.4804 32.6063 14.5652L31.335 15.8364L31.1655 16.0059C29.8095 17.362 28.2839 17.8705 28.2839 17.8705C28.1992 17.8705 28.1992 17.9552 28.1144 17.9552C28.0297 18.04 27.9449 18.2095 28.0297 18.379L28.3687 20.4978C28.3687 20.6673 28.3687 20.7521 28.1992 20.9216C28.0297 21.0063 27.8602 21.0063 27.7754 20.9216C27.6907 20.9216 27.6907 20.8368 27.6907 20.7521L26.4194 18.8028L24.4701 17.5315C24.3853 17.5315 24.3853 17.4467 24.3006 17.4467C24.2158 17.2772 24.2158 17.1077 24.3006 16.9382C24.3853 16.8535 24.5548 16.7687 24.6396 16.7687L26.7584 17.1077C26.9279 17.1077 27.0126 17.1077 27.1821 17.023C27.1821 17.023 27.2669 16.9382 27.2669 16.8535C27.2669 16.8535 27.8602 15.4974 28.9619 14.2262C29.1315 13.9719 29.1314 13.6329 28.8772 13.4634L24.3853 9.98854Z" fill="white"/>
</svg>
