<svg width="46" height="46" viewBox="0 0 46 46" fill="none" xmlns="http://www.w3.org/2000/svg">
<circle cx="23" cy="23" r="23" fill="#E94335"/>
<path d="M19.2271 13.9112V9.38602V9.32257V6.57617H18.8237C18.724 6.57617 18.6311 6.62602 18.5722 6.7076L17.1968 8.70849C17.1446 8.78327 17.1174 8.8739 17.1174 8.96454V13.9112H19.2271Z" fill="white"/>
<path d="M25.624 6.57129H20.24V8.68094H25.624V6.57129Z" fill="white"/>
<path d="M30.7067 36.5779H15.0916C12.3883 36.5779 10.197 34.3866 10.197 31.6833V15.9708C10.197 14.7698 11.1714 13.7954 12.3724 13.7954H33.4259C34.6269 13.7954 35.6013 14.7698 35.6013 15.9708V31.6833C35.6013 34.3866 33.41 36.5779 30.7067 36.5779Z" fill="white"/>
<path d="M16.8092 21.7878C16.8092 21.7878 16.637 21.6156 16.637 21.4093C16.637 21.3006 16.6733 21.1895 16.7526 21.1102C16.8613 21.0015 17.0109 20.9629 17.1514 20.9901L17.1673 20.9947C17.1922 21.0015 17.2149 21.0083 17.2375 21.0173L24.1148 23.2969L26.1747 21.2371C26.1747 21.2371 27.0539 20.3579 28.1347 20.1404C28.1461 20.1381 28.1574 20.1358 28.1688 20.1336C28.171 20.1336 28.1733 20.1336 28.1756 20.1313C28.452 20.0837 28.7443 20.1653 28.9573 20.376C29.1681 20.5868 29.2497 20.8814 29.2021 21.1578C29.2021 21.1601 29.2021 21.1623 29.1998 21.1646C29.1975 21.1759 29.1953 21.1873 29.193 21.1986C28.9755 22.2795 28.0962 23.1587 28.0962 23.1587L26.0365 25.2185L28.316 32.0958C28.3251 32.1185 28.3342 32.1434 28.3387 32.1661L28.3432 32.182C28.3727 32.3202 28.3319 32.472 28.2231 32.5808C28.1461 32.6578 28.0373 32.6941 27.9286 32.6963C27.7201 32.6986 27.6204 32.617 27.5547 32.5196L27.5456 32.5241L24.525 28.8237C24.244 28.4793 24.2712 27.9717 24.5885 27.6545L25.3068 26.9361C25.4495 26.7934 25.445 26.5622 25.2955 26.4263C25.155 26.2994 24.9329 26.3198 24.7992 26.4557L23.5846 27.6703L23.4215 27.8335C22.0687 29.1863 20.5867 29.7188 20.5867 29.7188L20.5799 29.7211C20.53 29.7415 20.4847 29.7709 20.4462 29.8117C20.3442 29.9137 20.3057 30.0564 20.3329 30.1879L20.6411 32.293C20.666 32.4312 20.6161 32.583 20.487 32.6759C20.3533 32.7734 20.1674 32.7711 20.036 32.6737C19.9884 32.6374 19.9522 32.5944 19.9273 32.5445L18.7172 30.6161L16.7843 29.4038C16.7367 29.3789 16.6937 29.3426 16.6597 29.2951C16.5577 29.1591 16.5645 28.9597 16.6733 28.8283C16.7662 28.715 16.9044 28.6696 17.0336 28.6923L19.1455 29.0005C19.2769 29.0277 19.4197 28.9891 19.5217 28.8872C19.5625 28.8464 19.5919 28.8011 19.6123 28.7535L19.6146 28.7467C19.6146 28.7467 20.181 27.4097 21.2801 26.1566C21.4817 25.9278 21.4568 25.5811 21.2234 25.3885L16.8092 21.7878Z" fill="#E94335"/>
<path d="M33.2016 17.8174H12.6059C11.4729 17.8174 10.5529 16.8997 10.5529 15.7644C10.5529 14.6314 11.4706 13.7114 12.6059 13.7114H33.2016C34.3346 13.7114 35.2546 14.6292 35.2546 15.7644C35.2524 16.8997 34.3346 17.8174 33.2016 17.8174Z" fill="#E94335"/>
<path d="M33.4916 14.3346C34.2802 14.3346 34.9215 14.9759 34.9215 15.7644C34.9215 16.553 34.2802 17.1943 33.4916 17.1943H12.3112C11.5226 17.1943 10.8813 16.553 10.8813 15.7644C10.8813 14.9759 11.5226 14.3346 12.3112 14.3346H33.4916ZM33.4916 13.6548H12.3112C11.1465 13.6548 10.2015 14.5997 10.2015 15.7644C10.2015 16.9292 11.1465 17.8741 12.3112 17.8741H33.4916C34.6563 17.8741 35.6013 16.9292 35.6013 15.7644C35.6035 14.5997 34.6586 13.6548 33.4916 13.6548Z" fill="white"/>
<path d="M29.0616 10.2696C29.0049 10.188 28.9121 10.1382 28.8101 10.1382H28.4067V13.3378V13.4012V17.4733H30.5164V12.5266C30.5164 12.4336 30.4892 12.3453 30.4371 12.2705L29.0616 10.2696Z" fill="white"/>
<path d="M22.1276 17.4757V13.4037V13.3402V10.1406H21.7243C21.6246 10.1406 21.5316 10.1905 21.4727 10.2721L20.0972 12.2729C20.0451 12.3477 20.0179 12.4384 20.0179 12.529V17.4757H22.1276Z" fill="white"/>
<path d="M28.5269 10.1382H23.1428V12.2478H28.5269V10.1382Z" fill="white"/>
<path d="M27.6159 9.43117V8.96211C27.6159 8.8692 27.5887 8.78082 27.5366 8.70605L26.1611 6.70516C26.1044 6.62358 26.0116 6.57373 25.9096 6.57373H25.5062V9.32014V9.38358V9.43117H27.6159Z" fill="white"/>
</svg>
