<svg width="46" height="46" viewBox="0 0 46 46" fill="none" xmlns="http://www.w3.org/2000/svg">
<circle cx="23" cy="23" r="23" fill="#E94335"/>
<path d="M38.37 9.46957L30.9253 5.16905C30.0936 4.69234 29.059 5.28062 29.0286 6.2239V10.6664C29.0286 11.0214 28.7446 11.3054 28.3896 11.3054C28.0346 11.3054 27.7506 11.0214 27.7506 10.6664V8.22201H22.3851C14.5448 8.22201 8.19543 14.5714 8.19543 22.4117V26.8441C8.19543 27.5439 8.76343 28.1119 9.46328 28.1119H9.88929H11.1875H11.6136C12.3134 28.1119 12.8814 27.5439 12.8814 26.8441V22.4117C12.8814 17.1679 17.1312 12.908 22.3851 12.908H28.2679C28.6837 12.908 29.0184 13.2427 29.0184 13.6585V14.8655C29.0184 15.8392 30.0733 16.4478 30.9151 15.9609L38.3599 11.6604C39.2119 11.1837 39.2119 9.95642 38.37 9.46957Z" fill="white"/>
<path d="M37.5382 18.2329H35.3778C34.6779 18.2329 34.1099 18.8009 34.1099 19.5008V23.9331C34.1099 29.1769 29.8601 33.4368 24.6062 33.4368H18.7234C18.3075 33.4368 17.9728 33.1021 17.9728 32.6863V31.4793C17.9728 30.5056 16.918 29.897 16.0762 30.3839L8.63138 34.6844C7.78954 35.1713 7.78954 36.3884 8.63138 36.8752L16.0762 41.1757C16.918 41.6626 17.9728 41.054 17.9728 40.0803V38.8734C17.9728 38.8632 17.9728 38.8632 17.9728 38.8531V35.8102C17.9728 35.4552 18.2569 35.1713 18.6119 35.1713C18.9669 35.1713 19.2508 35.4552 19.2508 35.8102V38.1126H24.6062C32.4465 38.1126 38.7959 31.7633 38.7959 23.923V19.4906C38.806 18.7908 38.238 18.2329 37.5382 18.2329Z" fill="white"/>
<rect x="17.3881" y="16.8359" width="12.328" height="12.328" rx="6.164" fill="white"/>
<path fill-rule="evenodd" clip-rule="evenodd" d="M23.3831 24.0355C22.7883 24.0355 22.3293 23.5705 22.3293 22.9756C22.3293 22.3928 22.7852 21.9187 23.3831 21.9187C23.9569 21.9187 24.4249 22.3928 24.4249 22.9756C24.4249 23.5705 23.9569 24.0355 23.3831 24.0355ZM24.9896 20.3787H24.8145L24.7148 20.8437C24.44 20.2941 23.6217 20.2397 23.1808 20.2397C21.8069 20.2397 20.608 21.5624 20.608 23.3802C20.608 24.8418 21.4807 25.7597 22.5769 25.7597C23.1899 25.7597 23.7093 25.6178 24.1381 25.1075L24.0263 25.6208H24.277H25.7536L26.5417 20.3817H24.9896V20.3787Z" fill="#E94335"/>
</svg>
